<svg width="18" height="18" viewBox="0 0 18 18" fill="none" xmlns="http://www.w3.org/2000/svg">
    <g clip-path="url(#clip0_2_6)">
        <path
            d="M6.143 0H1.857C1.36449 0 0.892158 0.195648 0.543903 0.543903C0.195648 0.892158 0 1.36449 0 1.857L0 6.143C0 7.169 0.831 8 1.857 8H6.143C6.63551 8 7.10784 7.80435 7.4561 7.4561C7.80435 7.10784 8 6.63551 8 6.143V1.857C8 1.36449 7.80435 0.892158 7.4561 0.543903C7.10784 0.195648 6.63551 0 6.143 0ZM16.143 0H11.857C11.3645 0 10.8922 0.195648 10.5439 0.543903C10.1956 0.892158 10 1.36449 10 1.857V6.143C10 7.169 10.831 8 11.857 8H16.143C16.6355 8 17.1078 7.80435 17.4561 7.4561C17.8044 7.10784 18 6.63551 18 6.143V1.857C18 1.36449 17.8044 0.892158 17.4561 0.543903C17.1078 0.195648 16.6355 0 16.143 0ZM6.143 10H1.857C1.36449 10 0.892158 10.1956 0.543903 10.5439C0.195648 10.8922 0 11.3645 0 11.857L0 16.143C0 17.169 0.831 18 1.857 18H6.143C6.63551 18 7.10784 17.8044 7.4561 17.4561C7.80435 17.1078 8 16.6355 8 16.143V11.857C8 11.3645 7.80435 10.8922 7.4561 10.5439C7.10784 10.1956 6.63551 10 6.143 10ZM16.143 10H11.857C11.3645 10 10.8922 10.1956 10.5439 10.5439C10.1956 10.8922 10 11.3645 10 11.857V16.143C10 17.169 10.831 18 11.857 18H16.143C16.6355 18 17.1078 17.8044 17.4561 17.4561C17.8044 17.1078 18 16.6355 18 16.143V11.857C18 11.3645 17.8044 10.8922 17.4561 10.5439C17.1078 10.1956 16.6355 10 16.143 10Z"
            fill="white" fill-opacity="0.9" />
    </g>
    <defs>
        <clipPath id="clip0_2_6">
            <rect width="18" height="18" fill="white" />
        </clipPath>
    </defs>
</svg>