<svg width="21" height="20" viewBox="0 0 21 20" fill="none" xmlns="http://www.w3.org/2000/svg">
<path d="M19.743 10.331L10.743 0.331C10.364 -0.0910003 9.636 -0.0910003 9.257 0.331L0.257 10.331C0.127456 10.4746 0.0424247 10.6527 0.0122443 10.8438C-0.0179361 11.0348 0.00803496 11.2305 0.0869999 11.407C0.247 11.768 0.605 12 1 12H3V19C3 19.2652 3.10536 19.5196 3.29289 19.7071C3.48043 19.8946 3.73478 20 4 20H7C7.26522 20 7.51957 19.8946 7.70711 19.7071C7.89464 19.5196 8 19.2652 8 19V15H12V19C12 19.2652 12.1054 19.5196 12.2929 19.7071C12.4804 19.8946 12.7348 20 13 20H16C16.2652 20 16.5196 19.8946 16.7071 19.7071C16.8946 19.5196 17 19.2652 17 19V12H19C19.1937 12.0008 19.3834 11.9453 19.546 11.8401C19.7087 11.735 19.8372 11.5848 19.916 11.4079C19.9948 11.231 20.0203 11.0349 19.9896 10.8437C19.9589 10.6525 19.8732 10.4744 19.743 10.331Z" fill="white" fill-opacity="0.9"/>
</svg>
