<svg width="20" height="20" viewBox="0 0 20 20" fill="none" xmlns="http://www.w3.org/2000/svg">
<g clip-path="url(#clip0_2_14)">
<path d="M19.993 5.95C19.9914 5.8778 19.9817 5.80602 19.964 5.736C19.957 5.711 19.943 5.687 19.934 5.662C19.913 5.605 19.894 5.549 19.864 5.497C19.848 5.47 19.826 5.448 19.807 5.422C19.775 5.377 19.744 5.331 19.705 5.292C19.682 5.27 19.652 5.252 19.627 5.231C19.588 5.199 19.552 5.164 19.507 5.137C19.503 5.134 19.498 5.134 19.493 5.131L19.485 5.125L10.506 0.135C10.3576 0.0527268 10.1908 0.00947567 10.0211 0.00930076C9.85147 0.00912586 9.68455 0.052033 9.536 0.134L0.515 5.124C0.512 5.127 0.509 5.131 0.504 5.134L0.494 5.138C0.459 5.158 0.433 5.187 0.4 5.211C0.364 5.238 0.326 5.262 0.294 5.293C0.264 5.324 0.241 5.36 0.215 5.395C0.188 5.43 0.158 5.461 0.136 5.499C0.11 5.542 0.0959999 5.591 0.0769999 5.638C0.0629999 5.671 0.045 5.702 0.036 5.738C0.0187295 5.80674 0.00900528 5.87715 0.00699997 5.948C0.00599997 5.965 0 5.98 0 5.998V14C0 14.363 0.197 14.698 0.515 14.874L9.493 19.861L9.494 19.862L9.496 19.863L9.516 19.874C9.559 19.898 9.606 19.911 9.651 19.928C9.683 19.941 9.714 19.958 9.748 19.967C9.91395 20.0098 10.088 20.0098 10.254 19.967C10.287 19.958 10.318 19.941 10.351 19.928C10.396 19.911 10.443 19.899 10.486 19.874L10.506 19.863L10.508 19.862L10.509 19.861L19.487 14.874C19.803 14.698 20 14.363 20 14V5.998C20 5.981 19.994 5.967 19.993 5.95ZM9.972 9.872L3.058 6.005L5.82 4.477L12.654 8.382L9.972 9.872ZM10.02 2.153L16.941 6L14.697 7.247L7.867 3.344L10.02 2.153ZM11 17.301L11.002 11.622L14 9.944V13L16 12V8.825L18 7.706V13.411L11 17.301Z" fill="white" fill-opacity="0.9"/>
</g>
<defs>
<clipPath id="clip0_2_14">
<rect width="20" height="20" fill="white"/>
</clipPath>
</defs>
</svg>
