<svg width="900" height="675" viewBox="0 0 900 675" fill="none" xmlns="http://www.w3.org/2000/svg">
<g clip-path="url(#clip0_2_44)">
<path d="M217 391C303.156 391 373 321.156 373 235C373 148.844 303.156 79 217 79C130.844 79 61 148.844 61 235C61 321.156 130.844 391 217 391Z" fill="#4FACF7"/>
<path d="M773 479C805.585 479 832 452.585 832 420C832 387.415 805.585 361 773 361C740.415 361 714 387.415 714 420C714 452.585 740.415 479 773 479Z" fill="#4FACF7"/>
<path d="M759 199C840.186 199 906 133.186 906 52C906 -29.1859 840.186 -95 759 -95C677.814 -95 612 -29.1859 612 52C612 133.186 677.814 199 759 199Z" fill="#4FACF7"/>
<path d="M448 102C491.63 102 527 66.6305 527 23C527 -20.6305 491.63 -56 448 -56C404.37 -56 369 -20.6305 369 23C369 66.6305 404.37 102 448 102Z" fill="#4FACF7"/>
<path d="M63 764C132.036 764 188 708.036 188 639C188 569.964 132.036 514 63 514C-6.03559 514 -62 569.964 -62 639C-62 708.036 -6.03559 764 63 764Z" fill="#4FACF7"/>
<path d="M430 673C468.66 673 500 641.66 500 603C500 564.34 468.66 533 430 533C391.34 533 360 564.34 360 603C360 641.66 391.34 673 430 673Z" fill="#4FACF7"/>
</g>
<defs>
<clipPath id="clip0_2_44">
<rect width="900" height="675" fill="white"/>
</clipPath>
</defs>
</svg>
