<svg width="233" height="168" viewBox="0 0 233 168" fill="none" xmlns="http://www.w3.org/2000/svg">
<g clip-path="url(#clip0_142_2)">
<path d="M16.3867 184.653C38.6916 184.653 56.7733 167.27 56.7733 145.827C56.7733 124.383 38.6916 107 16.3867 107C-5.91827 107 -24 124.383 -24 145.827C-24 167.27 -5.91827 184.653 16.3867 184.653Z" fill="#FB6F92"/>
<path d="M163.274 142.369C171.71 142.369 178.549 135.794 178.549 127.684C178.549 119.574 171.71 113 163.274 113C154.839 113 148 119.574 148 127.684C148 135.794 154.839 142.369 163.274 142.369Z" fill="#FB6F92"/>
<path d="M27.0211 46.1822C47.4673 46.1822 64.0422 30.2475 64.0422 10.5911C64.0422 -9.06532 47.4673 -25 27.0211 -25C6.57491 -25 -10 -9.06532 -10 10.5911C-10 30.2475 6.57491 46.1822 27.0211 46.1822Z" fill="#FB6F92"/>
<path d="M187.351 60.6622C209.084 60.6622 226.702 43.7247 226.702 22.8311C226.702 1.93757 209.084 -15 187.351 -15C165.618 -15 148 1.93757 148 22.8311C148 43.7247 165.618 60.6622 187.351 60.6622Z" fill="#FB6F92"/>
<path d="M215.604 99.8489C225.327 99.8489 233.209 92.2716 233.209 82.9244C233.209 73.5773 225.327 66 215.604 66C205.882 66 198 73.5773 198 82.9244C198 92.2716 205.882 99.8489 215.604 99.8489Z" fill="#FB6F92"/>
</g>
<defs>
<clipPath id="clip0_142_2">
<rect width="233" height="168" fill="white"/>
</clipPath>
</defs>
</svg>
