<svg width="186" height="139" viewBox="0 0 186 139" fill="none" xmlns="http://www.w3.org/2000/svg">
<g clip-path="url(#clip0_101_5)">
<mask id="mask0_101_5" style="mask-type:luminance" maskUnits="userSpaceOnUse" x="0" y="0" width="186" height="139">
<path d="M186 0H0V139H186V0Z" fill="white"/>
</mask>
<g mask="url(#mask0_101_5)">
<path d="M86.24 106.249C104.046 106.249 118.48 91.8662 118.48 74.1244C118.48 56.3827 104.046 42 86.24 42C68.4344 42 54 56.3827 54 74.1244C54 91.8662 68.4344 106.249 86.24 106.249Z" fill="#A34FF7"/>
<path d="M166.193 130.299C172.928 130.299 178.387 124.86 178.387 118.15C178.387 111.44 172.928 106 166.193 106C159.459 106 154 111.44 154 118.15C154 124.86 159.459 130.299 166.193 130.299Z" fill="#A34FF7"/>
<path d="M178.38 60.5422C195.158 60.5422 208.76 46.9894 208.76 30.2711C208.76 13.5528 195.158 0 178.38 0C161.602 0 148 13.5528 148 30.2711C148 46.9894 161.602 60.5422 178.38 60.5422Z" fill="#A34FF7"/>
<path d="M43.3267 32.5363C52.3435 32.5363 59.6533 25.2528 59.6533 16.2681C59.6533 7.28349 52.3435 -7.62939e-06 43.3267 -7.62939e-06C34.3098 -7.62939e-06 27 7.28349 27 16.2681C27 25.2528 34.3098 32.5363 43.3267 32.5363Z" fill="#A34FF7"/>
<path d="M13.8333 145.481C28.1008 145.481 39.6667 133.957 39.6667 119.741C39.6667 105.524 28.1008 94 13.8333 94C-0.434022 94 -12 105.524 -12 119.741C-12 133.957 -0.434022 145.481 13.8333 145.481Z" fill="#A34FF7"/>
<path d="M109.467 138.83C117.456 138.83 123.933 132.376 123.933 124.415C123.933 116.454 117.456 110 109.467 110C101.477 110 95 116.454 95 124.415C95 132.376 101.477 138.83 109.467 138.83Z" fill="#A34FF7"/>
</g>
</g>
<defs>
<clipPath id="clip0_101_5">
<rect width="186" height="139" fill="white"/>
</clipPath>
</defs>
</svg>
