<svg width="592" height="734" viewBox="0 0 592 734" fill="none" xmlns="http://www.w3.org/2000/svg">
<g clip-path="url(#clip0_49_2)">
<path d="M592 0H0V734H592V0Z" fill="#FFD8DB"/>
<path d="M592 367C552.621 337.64 513.242 308.362 460.094 296.128C406.945 283.895 340.115 288.788 312.927 259.51C285.739 230.231 298.368 166.944 285.739 118.011C273.109 69.0776 235.221 34.498 197.333 0H592V367Z" fill="#FFEFDB"/>
<path d="M592 183.5C572.267 168.82 552.621 154.14 526.047 148.023C499.473 141.907 466.057 144.353 452.463 129.755C438.869 115.156 445.184 83.4313 438.869 58.9647C432.555 34.498 413.611 17.2898 394.667 0H592V183.5Z" fill="#FFDFB8"/>
<path d="M0 367C54.8148 373.443 109.542 379.886 145.676 406.962C181.81 434.039 199.263 481.749 237.502 513.148C275.828 544.465 334.94 559.471 364.584 593.561C394.316 627.652 394.491 680.826 394.667 734H0V367Z" fill="#FFEFDB"/>
<path d="M0 550.5C27.3636 553.762 54.8148 556.943 72.7941 570.481C90.861 584.019 99.6314 607.915 118.751 623.574C137.87 639.232 167.514 646.736 182.336 663.781C197.158 680.826 197.246 707.413 197.333 734H0V550.5Z" fill="#FFDFB8"/>
</g>
<defs>
<clipPath id="clip0_49_2">
<rect width="592" height="734" rx="12" fill="white"/>
</clipPath>
</defs>
</svg>
