<svg width="900" height="675" viewBox="0 0 900 675" fill="none" xmlns="http://www.w3.org/2000/svg">
<g clip-path="url(#clip0_2_18)">
<path d="M186 718C272.156 718 342 648.156 342 562C342 475.844 272.156 406 186 406C99.8436 406 30 475.844 30 562C30 648.156 99.8436 718 186 718Z" fill="#4965FA"/>
<path d="M532 569C564.585 569 591 542.585 591 510C591 477.415 564.585 451 532 451C499.415 451 473 477.415 473 510C473 542.585 499.415 569 532 569Z" fill="#4965FA"/>
<path d="M187 218C265.977 218 330 153.977 330 75C330 -3.97672 265.977 -68 187 -68C108.023 -68 44 -3.97672 44 75C44 153.977 108.023 218 187 218Z" fill="#4965FA"/>
<path d="M655 177C738.947 177 807 108.947 807 25C807 -58.9473 738.947 -127 655 -127C571.053 -127 503 -58.9473 503 25C503 108.947 571.053 177 655 177Z" fill="#4965FA"/>
<path d="M842 607C879.555 607 910 576.555 910 539C910 501.445 879.555 471 842 471C804.445 471 774 501.445 774 539C774 576.555 804.445 607 842 607Z" fill="#4965FA"/>
</g>
<defs>
<clipPath id="clip0_2_18">
<rect width="900" height="675" fill="white"/>
</clipPath>
</defs>
</svg>
