<svg width="900" height="675" viewBox="0 0 900 675" fill="none" xmlns="http://www.w3.org/2000/svg">
<g clip-path="url(#clip0_2_26)">
<path d="M783 486C869.156 486 939 416.156 939 330C939 243.844 869.156 174 783 174C696.844 174 627 243.844 627 330C627 416.156 696.844 486 783 486Z" fill="#FFB13C"/>
<path d="M164 565C196.585 565 223 538.585 223 506C223 473.415 196.585 447 164 447C131.415 447 105 473.415 105 506C105 538.585 131.415 565 164 565Z" fill="#FFB13C"/>
<path d="M531 113C580.706 113 621 72.7056 621 23C621 -26.7056 580.706 -67 531 -67C481.294 -67 441 -26.7056 441 23C441 72.7056 481.294 113 531 113Z" fill="#FFB13C"/>
<path d="M464 470C515.915 470 558 427.915 558 376C558 324.085 515.915 282 464 282C412.085 282 370 324.085 370 376C370 427.915 412.085 470 464 470Z" fill="#FFB13C"/>
<path d="M610 728C647.003 728 677 698.003 677 661C677 623.997 647.003 594 610 594C572.997 594 543 623.997 543 661C543 698.003 572.997 728 610 728Z" fill="#FFB13C"/>
<path d="M42 259C113.245 259 171 201.245 171 130C171 58.7553 113.245 1 42 1C-29.2447 1 -87 58.7553 -87 130C-87 201.245 -29.2447 259 42 259Z" fill="#FFB13C"/>
</g>
<defs>
<clipPath id="clip0_2_26">
<rect width="900" height="675" fill="white"/>
</clipPath>
</defs>
</svg>
