<svg width="900" height="675" viewBox="0 0 900 675" fill="none" xmlns="http://www.w3.org/2000/svg">
<path d="M631 172C717.156 172 787 102.156 787 16C787 -70.1564 717.156 -140 631 -140C544.844 -140 475 -70.1564 475 16C475 102.156 544.844 172 631 172Z" fill="#FF7984"/>
<path d="M781 591C813.585 591 840 564.585 840 532C840 499.415 813.585 473 781 473C748.415 473 722 499.415 722 532C722 564.585 748.415 591 781 591Z" fill="#FF7984"/>
<path d="M119 418C171.467 418 214 375.467 214 323C214 270.533 171.467 228 119 228C66.5329 228 24 270.533 24 323C24 375.467 66.5329 418 119 418Z" fill="#FF7984"/>
<path d="M392 698C475.947 698 544 629.947 544 546C544 462.053 475.947 394 392 394C308.053 394 240 462.053 240 546C240 629.947 308.053 698 392 698Z" fill="#FF7984"/>
<path d="M58 768C127.588 768 184 711.588 184 642C184 572.412 127.588 516 58 516C-11.5879 516 -68 572.412 -68 642C-68 711.588 -11.5879 768 58 768Z" fill="#FF7984"/>
<path d="M872 351C943.797 351 1002 292.797 1002 221C1002 149.203 943.797 91 872 91C800.203 91 742 149.203 742 221C742 292.797 800.203 351 872 351Z" fill="#FF7984"/>
</svg>
